<mxfile host="app.diagrams.net" modified="2022-02-08T05:57:21.240Z" agent="5.0 (Windows NT 10.0; Win64; x64) AppleWebKit/537.36 (KHTML, like Gecko) Chrome/97.0.4692.99 Safari/537.36" etag="E3E2hS_ompRMOKz6gNYB" version="16.4.5" type="github">
  <diagram id="VdLjEIyXfi20JrJxK25Y" name="第 1 页">
    <mxGraphModel dx="1650" dy="890" grid="1" gridSize="10" guides="1" tooltips="1" connect="1" arrows="1" fold="1" page="1" pageScale="1" pageWidth="827" pageHeight="1169" math="0" shadow="0">
      <root>
        <mxCell id="0" />
        <mxCell id="1" parent="0" />
        <mxCell id="qOSOveKM96q125M51xoS-1" value="&lt;font face=&quot;Courier New&quot; style=&quot;font-size: 24px&quot;&gt;工作内存&lt;/font&gt;" style="rounded=0;whiteSpace=wrap;html=1;fillColor=#d80073;strokeColor=#A50040;fontColor=#ffffff;" vertex="1" parent="1">
          <mxGeometry x="225" y="249" width="470" height="140" as="geometry" />
        </mxCell>
        <mxCell id="qOSOveKM96q125M51xoS-2" value="&lt;font face=&quot;Courier New&quot;&gt;线程&lt;/font&gt;" style="rounded=1;whiteSpace=wrap;html=1;fillColor=#d0cee2;strokeColor=#56517e;" vertex="1" parent="1">
          <mxGeometry x="240" y="140" width="120" height="40" as="geometry" />
        </mxCell>
        <mxCell id="qOSOveKM96q125M51xoS-3" value="&lt;font face=&quot;Courier New&quot;&gt;线程&lt;/font&gt;" style="rounded=1;whiteSpace=wrap;html=1;fillColor=#d0cee2;strokeColor=#56517e;" vertex="1" parent="1">
          <mxGeometry x="400" y="140" width="120" height="40" as="geometry" />
        </mxCell>
        <mxCell id="qOSOveKM96q125M51xoS-4" value="&lt;font face=&quot;Courier New&quot;&gt;线程&lt;/font&gt;" style="rounded=1;whiteSpace=wrap;html=1;fillColor=#d0cee2;strokeColor=#56517e;" vertex="1" parent="1">
          <mxGeometry x="560" y="140" width="120" height="40" as="geometry" />
        </mxCell>
        <mxCell id="qOSOveKM96q125M51xoS-6" value="&lt;font face=&quot;Courier New&quot; size=&quot;3&quot;&gt;本地内存&lt;/font&gt;" style="rounded=0;whiteSpace=wrap;html=1;fillColor=#bac8d3;strokeColor=#23445d;" vertex="1" parent="1">
          <mxGeometry x="225" y="461" width="470" height="50" as="geometry" />
        </mxCell>
        <mxCell id="qOSOveKM96q125M51xoS-9" value="" style="shape=singleArrow;direction=south;whiteSpace=wrap;html=1;fontFamily=Courier New;fontSize=24;strokeColor=#999999;" vertex="1" parent="1">
          <mxGeometry x="270" y="180" width="40" height="70" as="geometry" />
        </mxCell>
        <mxCell id="qOSOveKM96q125M51xoS-10" value="" style="shape=singleArrow;direction=south;whiteSpace=wrap;html=1;fontFamily=Courier New;fontSize=24;strokeColor=#999999;" vertex="1" parent="1">
          <mxGeometry x="440" y="180" width="40" height="70" as="geometry" />
        </mxCell>
        <mxCell id="qOSOveKM96q125M51xoS-11" value="" style="shape=singleArrow;direction=south;whiteSpace=wrap;html=1;fontFamily=Courier New;fontSize=24;strokeColor=#999999;" vertex="1" parent="1">
          <mxGeometry x="610" y="179" width="40" height="70" as="geometry" />
        </mxCell>
        <mxCell id="qOSOveKM96q125M51xoS-12" value="" style="shape=singleArrow;direction=south;whiteSpace=wrap;html=1;fontFamily=Courier New;fontSize=24;strokeColor=#999999;" vertex="1" parent="1">
          <mxGeometry x="280" y="389" width="40" height="70" as="geometry" />
        </mxCell>
        <mxCell id="qOSOveKM96q125M51xoS-13" value="" style="shape=singleArrow;direction=south;whiteSpace=wrap;html=1;fontFamily=Courier New;fontSize=24;strokeColor=#999999;" vertex="1" parent="1">
          <mxGeometry x="440" y="391" width="40" height="70" as="geometry" />
        </mxCell>
        <mxCell id="qOSOveKM96q125M51xoS-14" value="" style="shape=singleArrow;direction=south;whiteSpace=wrap;html=1;fontFamily=Courier New;fontSize=24;strokeColor=#999999;" vertex="1" parent="1">
          <mxGeometry x="610" y="389" width="40" height="70" as="geometry" />
        </mxCell>
        <mxCell id="qOSOveKM96q125M51xoS-15" value="" style="endArrow=none;html=1;rounded=0;fontFamily=Courier New;fontSize=24;strokeColor=#FF6666;" edge="1" parent="1">
          <mxGeometry width="50" height="50" relative="1" as="geometry">
            <mxPoint x="200" y="270" as="sourcePoint" />
            <mxPoint x="720" y="270" as="targetPoint" />
          </mxGeometry>
        </mxCell>
        <mxCell id="qOSOveKM96q125M51xoS-17" value="&lt;font style=&quot;font-size: 12px&quot;&gt;Load屏障，每次读取都不允许线程在工作内存中读取，只能从本地内存中读&lt;/font&gt;" style="edgeLabel;html=1;align=center;verticalAlign=middle;resizable=0;points=[];fontSize=24;fontFamily=Courier New;labelBackgroundColor=#FF6666;" vertex="1" connectable="0" parent="qOSOveKM96q125M51xoS-15">
          <mxGeometry x="-0.0757" y="-1" relative="1" as="geometry">
            <mxPoint x="17" as="offset" />
          </mxGeometry>
        </mxCell>
        <mxCell id="qOSOveKM96q125M51xoS-19" value="" style="endArrow=none;html=1;rounded=0;fontFamily=Courier New;fontSize=24;strokeColor=#FF6666;" edge="1" parent="1">
          <mxGeometry width="50" height="50" relative="1" as="geometry">
            <mxPoint x="200" y="360" as="sourcePoint" />
            <mxPoint x="720" y="360" as="targetPoint" />
          </mxGeometry>
        </mxCell>
        <mxCell id="qOSOveKM96q125M51xoS-20" value="&lt;font style=&quot;font-size: 12px&quot;&gt;Store屏障，每次修改完成都必须同步到本地内存&lt;/font&gt;" style="edgeLabel;html=1;align=center;verticalAlign=middle;resizable=0;points=[];fontSize=24;fontFamily=Courier New;labelBackgroundColor=#FF6666;" vertex="1" connectable="0" parent="qOSOveKM96q125M51xoS-19">
          <mxGeometry x="-0.0757" y="-1" relative="1" as="geometry">
            <mxPoint as="offset" />
          </mxGeometry>
        </mxCell>
      </root>
    </mxGraphModel>
  </diagram>
</mxfile>
